<?xml version="1.0" encoding="utf-8" standalone="no"?>
<!DOCTYPE svg PUBLIC "-//W3C//DTD SVG 1.1//EN" "http://www.w3.org/Graphics/SVG/1.1/DTD/svg11.dtd">
<svg xmlns="http://www.w3.org/2000/svg" xmlns:xl="http://www.w3.org/1999/xlink" version="1.1" viewBox="0 0 283.46457 283.46457" width="283.46457pt" height="283.46457pt" xmlns:dc="http://purl.org/dc/elements/1.1/"><metadata> Produced by OmniGraffle 6.2.5 <dc:date>2015-07-29 08:11:25 +0000</dc:date></metadata><defs/><g stroke="none" stroke-opacity="1" stroke-dasharray="none" fill="none" fill-opacity="1"><title>tkotlc</title><rect fill="white" width="283.46457" height="283.46457"/><g><title>layer1</title><path d="M 48.188975 28.346455 L 235.27559 28.346455 C 235.27559 28.346455 235.27558 60.149204 235.27559 92.908325 C 235.27559 224.88189 141.73228 255.1181 141.73228 255.1181 C 141.73228 255.1181 48.188984 224.88189 48.188975 93.138356 C 48.188972 60.1439 48.188975 28.346455 48.188975 28.346455 Z" fill="#333"/><path d="M 48.188975 28.346455 L 235.27559 28.346455 C 235.27559 28.346455 235.27558 60.149204 235.27559 92.908325 C 235.27559 224.88189 141.73228 255.1181 141.73228 255.1181 C 141.73228 255.1181 48.188984 224.88189 48.188975 93.138356 C 48.188972 60.1439 48.188975 28.346455 48.188975 28.346455 Z" stroke="black" stroke-linecap="round" stroke-linejoin="round" stroke-width="4"/><path d="M 92.07349 39.145105 L 205.24934 186.00675 L 186.77165 205.44432 L 142.88714 147.13161 L 94.3832 205.44432 L 78.21522 183.84702 L 124.409446 125.534306 L 75.90551 60.742405 Z" fill="white"/><path d="M 92.07349 39.145105 L 205.24934 186.00675 L 186.77165 205.44432 L 142.88714 147.13161 L 94.3832 205.44432 L 78.21522 183.84702 L 124.409446 125.534306 L 75.90551 60.742405 Z" stroke="black" stroke-linecap="round" stroke-linejoin="round" stroke-width="2"/><path d="M 155.49156 41.304835 L 221.41732 41.304835 C 221.41732 41.304835 221.41732 52.511518 221.41732 64.05521 C 221.41732 110.56018 188.45444 121.214846 188.45444 121.214846 C 188.45444 121.214846 155.49156 110.56018 155.49156 64.136267 C 155.49156 52.50965 155.49156 41.304835 155.49156 41.304835 Z" fill="white"/><path d="M 155.49156 41.304835 L 221.41732 41.304835 C 221.41732 41.304835 221.41732 52.511518 221.41732 64.05521 C 221.41732 110.56018 188.45444 121.214846 188.45444 121.214846 C 188.45444 121.214846 155.49156 110.56018 155.49156 64.136267 C 155.49156 52.50965 155.49156 41.304835 155.49156 41.304835 Z" stroke="black" stroke-linecap="round" stroke-linejoin="round" stroke-width="2"/><path d="M 170.95563 45.110074 L 210.83664 96.86132 L 204.32546 103.71075 L 188.86139 83.16246 L 171.76953 103.71075 L 166.07224 96.10027 L 182.3502 75.551983 L 165.25834 52.72055 Z" fill="#333"/><path d="M 170.95563 45.110074 L 210.83664 96.86132 L 204.32546 103.71075 L 188.86139 83.16246 L 171.76953 103.71075 L 166.07224 96.10027 L 182.3502 75.551983 L 165.25834 52.72055 Z" stroke="#0d0c1f" stroke-linecap="round" stroke-linejoin="round" stroke-width="2"/><path d="M 211.51856 47.784025 L 193.70078 47.784025 C 193.70078 47.784025 193.70078 50.81286 193.70078 53.932775 C 193.70078 66.501685 202.60967 69.381325 202.60967 69.381325 C 202.60967 69.381325 211.51856 66.501685 211.51856 53.954682 C 211.51856 50.812353 211.51856 47.784025 211.51856 47.784025 Z" fill="#333"/><path d="M 211.51856 47.784025 L 193.70078 47.784025 C 193.70078 47.784025 193.70078 50.81286 193.70078 53.932775 C 193.70078 66.501685 202.60967 69.381325 202.60967 69.381325 C 202.60967 69.381325 211.51856 66.501685 211.51856 53.954682 C 211.51856 50.812353 211.51856 47.784025 211.51856 47.784025 Z" stroke="black" stroke-linecap="round" stroke-linejoin="round" stroke-width="2"/></g></g></svg>
